<?xml version="1.0" encoding="UTF-8"?>
<svg width="60" height="60" viewBox="0 0 60 60" fill="none" xmlns="http://www.w3.org/2000/svg">
  <!-- Circular background -->
  <circle cx="30" cy="30" r="30" fill="#5A78EE"/>
  
  <!-- Contentdrips logo scaled and centered, filled white -->
  <g transform="translate(11.5, 16.5) scale(0.48)">
    <path d="M66.2728 8.78288C66.2728 8.78288 55.2407 3.22338 44.543 9.02919C33.8452 14.7998 32.0329 23.966 32.0329 23.966C32.0329 23.966 29.64 32.446 32.1385 39.325C35.5871 48.8078 42.4844 52.3617 42.4844 52.3617C44.8421 53.646 60.9063 63.6566 76.4075 45.7642V0.197316C76.4251 0.197316 66.0265 -2.07223 66.2728 8.78288ZM66.5191 41.3834C66.5191 41.3834 60.1673 49.1949 49.7687 44.603C39.37 39.9935 41.2527 29.2088 41.2527 29.2088C41.2527 29.2088 41.7981 20.764 50.4725 17.3333C59.1468 13.9026 66.5191 20.764 66.5191 20.764V41.3834Z" fill="white"/>
    <path d="M12.6074 9.93779C16.3023 7.77381 20.5955 6.17281 25.3286 6.27837C25.3286 6.27837 31.0294 6.17281 36.3782 8.91738C35.2346 9.72667 34.1613 10.6239 33.1583 11.6268C32.6305 12.137 32.1378 12.6824 31.6804 13.2453C30.695 14.4241 29.9033 15.5149 29.1467 16.852C27.7039 16.4473 25.135 16.1658 22.4606 16.764C18.9768 17.5205 15.1059 19.5438 12.5722 24.1708C9.61624 29.5544 10.408 36.3103 14.1206 40.7966C14.1206 40.7966 20.402 47.8867 29.4986 45.582C31.8915 50.0507 35.2698 53.8509 39.8269 56.138C38.3841 56.226 25.223 57.0529 20.0853 55.5046C19.9445 55.4519 19.7861 55.4167 19.6454 55.3815C19.2055 55.2759 18.0618 54.9768 16.4431 54.3259C14.5076 53.5518 11.8508 52.2323 10.0737 50.8248C6.34357 47.8867 4.44331 44.6847 3.49318 42.9606C2.56064 41.2188 1.52254 38.3511 1.52254 38.3511C1.52254 38.3511 0.590002 35.8352 0.625192 32.211C0.642787 32.211 -0.395319 17.5381 12.6074 9.93779Z" fill="white"/>
  </g>
</svg>
