<svg xmlns="http://www.w3.org/2000/svg" viewBox="0 0 24 24" width="24" height="24">
  <circle cx="12" cy="12" r="12" fill="#5A78EE"/>
  <g transform="translate(4.6, 6.6) scale(0.19)" fill="white">
    <path d="M66.3 8.8s-11-5.6-21.7.2c-10.7 5.8-12.5 14.9-12.5 14.9s-2.4 8.5.1 15.4c3.4 9.5 10.3 13 10.3 13 2.4 1.3 18.4 11.3 34-6.6V.2s-10.3-2.3-10.2 8.6zM66.5 41.4s-6.4 7.8-16.8 3.2c-10.4-4.6-8.5-15.4-8.5-15.4s.5-8.4 9.2-11.9c8.7-3.4 16.1 3.5 16.1 3.5v20.6z"/>
    <path d="M12.6 9.9c3.7-2.2 7.9-3.8 12.7-3.7 0 0 5.7-.1 11 2.6-.9.8-2 1.7-3 2.7-.5.5-1 1.1-1.5 1.6-1 1.2-1.8 2.3-2.5 3.7-1.4-.4-4-.7-6.7-.1-3.5.8-7.4 2.8-9.9 7.4-3 5.4-2.2 12.1 1.5 16.6 0 0 6.3 7.1 15.4 4.8 2.4 4.5 5.8 8.3 10.3 10.6-1.4.1-14.6.9-19.7-.6-.1-.1-.3-.1-.5-.1-.4-.1-1.6-.4-3.2-1.1-1.9-.8-4.6-2.1-6.4-3.5-3.7-2.9-5.6-6.1-6.6-7.9-.9-1.7-2-4.6-2-4.6s-.9-2.5-.9-6.1c0 0-1-14.7 12-22.3z"/>
  </g>
</svg>
